<?xml version="1.0" encoding="utf-8"?>
<!-- Generator: Adobe Illustrator 18.0.0, SVG Export Plug-In . SVG Version: 6.00 Build 0)  -->
<!DOCTYPE svg PUBLIC "-//W3C//DTD SVG 1.1//EN" "http://www.w3.org/Graphics/SVG/1.1/DTD/svg11.dtd">
<svg version="1.1" id="Layer_1" xmlns="http://www.w3.org/2000/svg" xmlns:xlink="http://www.w3.org/1999/xlink" x="0px" y="0px"  width="30" height="30"
	 viewBox="0 0 30 30" enable-background="new 0 0 30 30" xml:space="preserve">
<path fill="#B69B56" d="M29.5,11.5c0-0.3-0.2-0.6-0.5-0.7l-0.1-0.1h-0.1c-1.1,0-2,0.1-3.3,0.1c-1.2,0-2.4,0-3.6-0.1h-0.2l-0.1,0.1
	c-0.3,0.1-0.5,0.4-0.5,0.7c0,0.3,0.1,0.6,0.3,0.9l0.2,0.1l1,0.1c0.9,0.1,1.1,0.3,1.1,0.3c0.1,0.1,0.5,0.9,0.5,4.8v2.9c0,4-2,6-5.8,6
	s-5.6-1.7-5.8-5.4c2.2-0.4,4.1-1.5,5.6-3.2c1.6-1.9,2.5-4.3,2.5-6.9c0-4.9-3.1-10.1-9.9-10.1C4.7,1.1,0.3,5.5,0.3,11.5
	c0,5,3.4,9,8.2,9.8c0,3,0.9,5,2.8,6.2c1.5,1,3.6,1.5,6.3,1.5c2.6,0,5-0.7,6.5-2c1.6-1.4,2.5-3.5,2.5-6.4c0,0,0-3.2,0-3.3
	c0-1.3,0-3.7,0.4-4.3c0,0,0,0,0,0c0.1-0.1,0.4-0.2,1.1-0.3l1-0.1l0.2-0.1c0.2-0.2,0.3-0.5,0.3-0.7C29.5,11.6,29.5,11.6,29.5,11.5z
	 M6.4,10.7l-0.1,0c-0.3,0.1-0.5,0.5-0.6,0.9c0,0,0,0,0,0.1c0,0.4,0.2,0.6,0.4,0.8l0.1,0.1l0.9,0.1c1.4,0.1,1.4,0.1,1.4,2.5v3.8
	c-3-1.2-4.3-5-4.3-8.4c0-5.5,3.1-7.4,5.8-7.4c4.8,0,6.5,4.8,6.5,8.9c0,4.4-2.1,6.5-4.2,7.1v-4c0-2.5,0-2.5,1.4-2.5l0.8,0h0.1
	l0.1-0.1c0.3-0.1,0.5-0.5,0.4-0.9c0-0.4-0.2-0.7-0.6-0.9l-0.1,0h-0.1c-1.5,0-2.6,0.1-3.9,0.1s-2.4,0-3.9-0.1H6.4z"/>
</svg>
